<svg width="40" height="40" viewBox="0 0 40 40" fill="none" xmlns="http://www.w3.org/2000/svg">
<circle cx="20" cy="20" r="20" fill="#03256C"/>
<path d="M18.7071 20.7071C19.0976 20.3166 19.0976 19.6834 18.7071 19.2929L12.3431 12.9289C11.9526 12.5384 11.3195 12.5384 10.9289 12.9289C10.5384 13.3195 10.5384 13.9526 10.9289 14.3431L16.5858 20L10.9289 25.6569C10.5384 26.0474 10.5384 26.6805 10.9289 27.0711C11.3195 27.4616 11.9526 27.4616 12.3431 27.0711L18.7071 20.7071ZM2 21L18 21V19L2 19L2 21Z" fill="white"/>
<path d="M21.2929 19.2929C20.9024 19.6834 20.9024 20.3166 21.2929 20.7071L27.6569 27.0711C28.0474 27.4616 28.6805 27.4616 29.0711 27.0711C29.4616 26.6805 29.4616 26.0474 29.0711 25.6569L23.4142 20L29.0711 14.3431C29.4616 13.9526 29.4616 13.3195 29.0711 12.9289C28.6805 12.5384 28.0474 12.5384 27.6569 12.9289L21.2929 19.2929ZM38 19L22 19V21L38 21V19Z" fill="white"/>
</svg>
