<svg width="161" height="25" viewBox="0 0 161 25" fill="none" xmlns="http://www.w3.org/2000/svg">
<path d="M5.3975 11.5195V5.03412H8.88981C11.1005 5.03412 12.4462 6.28008 12.4462 8.29279C12.4462 10.2416 11.1005 11.5195 8.88981 11.5195H5.3975ZM9.43448 15.3213C13.92 15.3213 16.8997 12.3821 16.8997 8.26084C16.8997 4.17154 13.92 1.20041 9.43448 1.20041H0.944V23.8513H5.36546V15.3213H9.43448Z" fill="black"/>
<path d="M21.5196 14.2031C21.6158 12.7655 22.8333 11.1042 25.044 11.1042C27.479 11.1042 28.5043 12.6377 28.5683 14.2031H21.5196ZM28.9849 18.2924C28.4722 19.6981 27.3829 20.6885 25.3964 20.6885C23.2818 20.6885 21.5197 19.1869 21.4235 17.1103H32.7015C32.7015 17.0464 32.7655 16.4075 32.7655 15.8005C32.7655 10.7528 29.8499 7.65383 24.9799 7.65383C20.9429 7.65383 17.2263 10.9125 17.2263 15.9283C17.2263 21.2316 21.0391 24.3305 25.3644 24.3305C29.2412 24.3305 31.7403 22.0622 32.5413 19.3467L28.9849 18.2924Z" fill="black"/>
<path d="M38.5882 14.2031C38.6843 12.7655 39.9018 11.1042 42.1126 11.1042C44.5476 11.1042 45.5728 12.6377 45.6369 14.2031H38.5882ZM46.0534 18.2924C45.5408 19.6981 44.4515 20.6885 42.465 20.6885C40.3504 20.6885 38.5882 19.1869 38.4921 17.1103H49.77C49.77 17.0464 49.8341 16.4075 49.8341 15.8005C49.8341 10.7528 46.9185 7.65383 42.0485 7.65383C38.0115 7.65383 34.2949 10.9125 34.2949 15.9283C34.2949 21.2316 38.1076 24.3305 42.433 24.3305C46.3097 24.3305 48.8088 22.0622 49.6098 19.3467L46.0534 18.2924Z" fill="black"/>
<path d="M62.1608 8.06915C61.8404 8.0372 61.52 8.00526 61.1676 8.00526C59.8219 8.00526 57.6432 8.38863 56.6821 10.4652V8.13305H52.5489V23.8513H56.8102V16.6631C56.8102 13.2766 58.7005 12.2223 60.8792 12.2223C61.2637 12.2223 61.6802 12.2543 62.1608 12.3501V8.06915Z" fill="black"/>
<path d="M76.9533 3.43674H73.1086V5.64113C73.1086 7.04683 72.3396 8.13305 70.6736 8.13305H69.8726V11.9029H72.7241V19.2189C72.7241 22.2539 74.6465 24.0749 77.7223 24.0749C78.9718 24.0749 79.7408 23.8513 80.1252 23.6916V20.1773C79.901 20.2412 79.3243 20.3051 78.8116 20.3051C77.5941 20.3051 76.9533 19.8578 76.9533 18.4841V11.9029H80.1252V8.13305H76.9533V3.43674Z" fill="black"/>
<path d="M90.0285 20.4648C87.9459 20.4648 86.0235 18.9314 86.0235 15.9922C86.0235 13.021 87.9459 11.5195 90.0285 11.5195C92.111 11.5195 94.0334 13.021 94.0334 15.9922C94.0334 18.9633 92.111 20.4648 90.0285 20.4648ZM90.0285 7.65383C85.3186 7.65383 81.7623 11.1361 81.7623 15.9922C81.7623 20.8163 85.3186 24.3305 90.0285 24.3305C94.7383 24.3305 98.2947 20.8163 98.2947 15.9922C98.2947 11.1361 94.7383 7.65383 90.0285 7.65383Z" fill="black"/>
<path d="M113.067 11.5195V5.03412H116.559C118.77 5.03412 120.115 6.28008 120.115 8.29279C120.115 10.2416 118.77 11.5195 116.559 11.5195H113.067ZM117.104 15.3213C121.589 15.3213 124.569 12.3821 124.569 8.26084C124.569 4.17154 121.589 1.20041 117.104 1.20041H108.613V23.8513H113.035V15.3213H117.104Z" fill="black"/>
<path d="M125.558 19.5703C125.558 22.0303 127.608 24.2986 130.973 24.2986C133.311 24.2986 134.817 23.2123 135.618 21.9664C135.618 22.5734 135.682 23.436 135.778 23.8513H139.687C139.591 23.3082 139.495 22.19 139.495 21.3594V13.628C139.495 10.4652 137.637 7.65383 132.639 7.65383C128.409 7.65383 126.135 10.3694 125.878 12.8294L129.659 13.628C129.787 12.2543 130.812 11.0722 132.671 11.0722C134.465 11.0722 135.33 11.9987 135.33 13.1169C135.33 13.66 135.042 14.1073 134.144 14.235L130.268 14.8101C127.64 15.1935 125.558 16.7589 125.558 19.5703ZM131.87 21.1357C130.492 21.1357 129.819 20.2412 129.819 19.3147C129.819 18.1007 130.684 17.4937 131.773 17.334L135.33 16.7909V17.4937C135.33 20.2732 133.664 21.1357 131.87 21.1357Z" fill="black"/>
<path d="M147.411 23.8513V8.13305H143.15V23.8513H147.411Z" fill="black"/>
<path d="M160.944 8.06915C160.624 8.0372 160.303 8.00526 159.951 8.00526C158.605 8.00526 156.426 8.38863 155.465 10.4652V8.13305H151.332V23.8513H155.593V16.6631C155.593 13.2766 157.484 12.2223 159.662 12.2223C160.047 12.2223 160.463 12.2543 160.944 12.3501V8.06915Z" fill="black"/>
<path d="M153.249 5.56992C151.808 5.56992 150.622 4.38786 150.622 2.98216C150.622 1.51257 151.808 0.330505 153.249 0.330505C154.723 0.330505 155.877 1.51257 155.877 2.98216C155.877 4.38786 154.723 5.56992 153.249 5.56992Z" fill="#3971FF"/>
<path d="M145.264 5.57725C143.822 5.57725 142.637 4.39518 142.637 2.98949C142.637 1.51989 143.822 0.33783 145.264 0.33783C146.738 0.33783 147.891 1.51989 147.891 2.98949C147.891 4.39518 146.738 5.57725 145.264 5.57725Z" fill="#3971FF"/>
</svg>
