<svg width="690" height="540" viewBox="0 0 690 540" fill="none" xmlns="http://www.w3.org/2000/svg">
<path d="M240.591 66.3852C240.591 60.0973 245.688 55 251.976 55H545.715C552.003 55 557.1 60.0973 557.1 66.3852V277.012C557.1 283.3 552.003 288.397 545.715 288.397H251.976C245.688 288.397 240.591 283.3 240.591 277.012V66.3852Z" fill="#F2F2F2"/>
<path fill-rule="evenodd" clip-rule="evenodd" d="M329.788 119.259H278.102C273.129 119.259 269.098 123.29 269.098 128.262V255.858C269.098 260.83 273.129 264.861 278.102 264.861H329.788C334.76 264.861 338.791 260.83 338.791 255.858V128.262C338.791 123.29 334.76 119.259 329.788 119.259ZM278.102 118.259C272.577 118.259 268.098 122.737 268.098 128.262V255.858C268.098 261.383 272.577 265.861 278.102 265.861H329.788C335.312 265.861 339.791 261.383 339.791 255.858V128.262C339.791 122.737 335.312 118.259 329.788 118.259H278.102Z" fill="white"/>
<path fill-rule="evenodd" clip-rule="evenodd" d="M522.376 119.259H362.448C357.475 119.259 353.444 123.29 353.444 128.262V175.731C353.444 180.703 357.475 184.734 362.448 184.734H522.376C527.348 184.734 531.379 180.703 531.379 175.731V128.262C531.379 123.29 527.348 119.259 522.376 119.259ZM362.448 118.259C356.923 118.259 352.444 122.737 352.444 128.262V175.731C352.444 181.255 356.923 185.734 362.448 185.734H522.376C527.901 185.734 532.379 181.255 532.379 175.731V128.262C532.379 122.737 527.901 118.259 522.376 118.259H362.448Z" fill="white"/>
<path fill-rule="evenodd" clip-rule="evenodd" d="M522.376 199.385H362.448C357.475 199.385 353.444 203.416 353.444 208.389V255.857C353.444 260.83 357.475 264.861 362.448 264.861H522.376C527.348 264.861 531.379 260.83 531.379 255.857V208.389C531.379 203.416 527.348 199.385 522.376 199.385ZM362.448 198.385C356.923 198.385 352.444 202.864 352.444 208.389V255.857C352.444 261.382 356.923 265.861 362.448 265.861H522.376C527.901 265.861 532.379 261.382 532.379 255.857V208.389C532.379 202.864 527.901 198.385 522.376 198.385H362.448Z" fill="white"/>
<path fill-rule="evenodd" clip-rule="evenodd" d="M556.533 103.316H241.162V102.316H556.533V103.316Z" fill="white"/>
<path fill-rule="evenodd" clip-rule="evenodd" d="M261.085 85.8775C264.305 85.8775 266.916 83.2668 266.916 80.0464C266.916 76.8259 264.305 74.2152 261.085 74.2152C257.865 74.2152 255.254 76.8259 255.254 80.0464C255.254 83.2668 257.865 85.8775 261.085 85.8775ZM261.085 86.8775C264.858 86.8775 267.916 83.8191 267.916 80.0464C267.916 76.2736 264.858 73.2152 261.085 73.2152C257.312 73.2152 254.254 76.2736 254.254 80.0464C254.254 83.8191 257.312 86.8775 261.085 86.8775Z" fill="white"/>
<path fill-rule="evenodd" clip-rule="evenodd" d="M279.304 85.8775C282.525 85.8775 285.135 83.2668 285.135 80.0464C285.135 76.8259 282.525 74.2152 279.304 74.2152C276.084 74.2152 273.473 76.8259 273.473 80.0464C273.473 83.2668 276.084 85.8775 279.304 85.8775ZM279.304 86.8775C283.077 86.8775 286.135 83.8191 286.135 80.0464C286.135 76.2736 283.077 73.2152 279.304 73.2152C275.531 73.2152 272.473 76.2736 272.473 80.0464C272.473 83.8191 275.531 86.8775 279.304 86.8775Z" fill="white"/>
<path fill-rule="evenodd" clip-rule="evenodd" d="M297.521 85.8775C300.742 85.8775 303.353 83.2668 303.353 80.0464C303.353 76.8259 300.742 74.2152 297.521 74.2152C294.301 74.2152 291.69 76.8259 291.69 80.0464C291.69 83.2668 294.301 85.8775 297.521 85.8775ZM297.521 86.8775C301.294 86.8775 304.353 83.8191 304.353 80.0464C304.353 76.2736 301.294 73.2152 297.521 73.2152C293.749 73.2152 290.69 76.2736 290.69 80.0464C290.69 83.8191 293.749 86.8775 297.521 86.8775Z" fill="white"/>
<path d="M572.608 184.848C572.608 218.435 545.38 245.663 511.793 245.663C478.206 245.663 450.978 218.435 450.978 184.848C450.978 151.261 478.206 124.033 511.793 124.033C545.38 124.033 572.608 151.261 572.608 184.848Z" fill="black"/>
<path d="M618.093 258.868L478.375 261.455L595.622 358.978C595.622 358.978 648.766 360.074 649.862 334.323C650.958 308.573 622.468 283.918 622.468 283.918L627.478 273.481C628.49 271.372 628.747 268.98 628.205 266.704C627.095 262.04 622.886 258.779 618.093 258.868Z" fill="#E99BBA"/>
<path d="M600.552 274.7C629.973 299.815 649.314 499.331 649.314 499.331H371.538L278.946 282.37L335.378 255.524L403.863 370.579C403.863 370.579 427.97 269.429 450.433 265.386C468.964 262.051 489.332 260.455 489.332 260.455L541.929 260.455C541.929 260.455 578.089 255.524 600.552 274.7Z" fill="#E99BBA"/>
<path d="M487.139 261.003H538.777C538.777 261.003 537.133 292.232 509.602 292.232C482.071 292.232 487.139 261.003 487.139 261.003Z" fill="white"/>
<path fill-rule="evenodd" clip-rule="evenodd" d="M568.357 260.739C568.503 260.206 569.053 259.892 569.585 260.038L575.826 261.748C596.947 267.535 613.134 284.531 617.885 305.909L627.825 350.638C627.945 351.177 627.605 351.712 627.066 351.831C626.527 351.951 625.992 351.611 625.873 351.072L615.933 306.342C611.343 285.688 595.704 269.268 575.298 263.677L569.057 261.967C568.524 261.821 568.211 261.271 568.357 260.739Z" fill="black"/>
<path fill-rule="evenodd" clip-rule="evenodd" d="M566.446 364.11C566.993 364.034 567.498 364.416 567.574 364.963L585.654 495.359C585.73 495.906 585.348 496.411 584.801 496.487C584.254 496.562 583.749 496.18 583.673 495.633L565.593 365.238C565.517 364.691 565.899 364.186 566.446 364.11Z" fill="black"/>
<path d="M292.092 276.32L334.408 255.688L314.786 237.746L281.63 234.338C280.359 234.207 279.931 235.988 281.122 236.449L298.27 243.099L282.302 244.584L243.995 232.712C242.706 232.313 241.975 234.142 243.184 234.741L276.9 251.437L231.356 246.444C230.117 246.308 229.649 248.017 230.784 248.531L292.092 276.32Z" fill="white"/>
<path d="M489.504 244.487C489.504 244.487 470.693 248.156 459.48 233.72C448.267 219.285 456.869 198.012 456.869 198.012L470.907 154.459C470.907 154.459 482.754 151.427 502.477 170.603C523.297 193.066 522.452 195.656 522.452 195.656C522.452 195.656 547.5 182.684 550.111 205.467C551.956 221.561 533.41 227.04 533.41 227.04L538.647 261.009C538.647 261.009 536.337 277.744 513.653 278.746C490.295 279.779 488.143 266.213 488.143 266.213L489.504 244.487Z" fill="white"/>
<path d="M488.497 260.581L488.7 244.437L516.061 233.225L488.497 260.581Z" fill="black"/>
<path fill-rule="evenodd" clip-rule="evenodd" d="M541.062 204.415C540.814 204.082 540.345 204.013 540.012 204.261L528.997 212.457C528.665 212.704 528.596 213.174 528.843 213.507C529.09 213.839 529.56 213.908 529.892 213.661L540.908 205.464C541.24 205.217 541.309 204.747 541.062 204.415Z" fill="black"/>
<path fill-rule="evenodd" clip-rule="evenodd" d="M492.247 220.079C492.996 220.055 492.996 220.055 492.996 220.056L492.996 220.058L492.996 220.063L492.997 220.076C492.997 220.085 492.997 220.098 492.997 220.113C492.997 220.144 492.996 220.185 492.994 220.235C492.99 220.336 492.98 220.475 492.958 220.644C492.914 220.981 492.82 221.441 492.618 221.947C492.208 222.973 491.358 224.17 489.654 224.878C487.894 225.609 486.322 225.174 485.24 224.596C484.7 224.308 484.268 223.978 483.971 223.722C483.822 223.593 483.705 223.48 483.623 223.398C483.582 223.357 483.55 223.323 483.527 223.299C483.516 223.286 483.507 223.276 483.5 223.269L483.491 223.259L483.488 223.256L483.487 223.254C483.487 223.254 483.486 223.253 484.049 222.758L483.486 223.253C483.212 222.942 483.242 222.469 483.553 222.195C483.864 221.921 484.338 221.951 484.611 222.262L484.611 222.261C484.611 222.261 484.61 222.261 484.611 222.262L484.625 222.276C484.637 222.29 484.659 222.312 484.688 222.341C484.746 222.4 484.835 222.486 484.952 222.587C485.188 222.791 485.528 223.05 485.946 223.273C486.779 223.718 487.866 223.996 489.078 223.493C490.347 222.966 490.937 222.109 491.225 221.391C491.371 221.024 491.439 220.69 491.471 220.449C491.487 220.33 491.493 220.235 491.495 220.174C491.497 220.144 491.497 220.122 491.497 220.11L491.497 220.099C491.486 219.686 491.81 219.342 492.223 219.329C492.637 219.316 492.983 219.642 492.996 220.056L492.247 220.079Z" fill="black"/>
<path fill-rule="evenodd" clip-rule="evenodd" d="M484.809 188.432C484.406 188.332 484 188.578 483.9 188.98C483.791 189.421 483.688 189.845 483.588 190.253C482.686 193.935 482.101 196.326 480.735 198.678C479.223 201.281 476.725 203.875 471.632 207.988C471.388 208.185 471.079 208.572 471.219 209.096C471.327 209.498 471.655 209.735 471.844 209.854C472.272 210.124 472.943 210.357 473.62 210.57C473.982 210.684 474.364 210.798 474.751 210.913C475.915 211.26 477.134 211.623 478.068 212.066C478.442 212.244 478.889 212.085 479.067 211.71C479.244 211.336 479.085 210.889 478.711 210.711C477.662 210.213 476.271 209.8 475.085 209.447C474.722 209.339 474.379 209.236 474.07 209.139C473.642 209.005 473.297 208.885 473.039 208.778C477.856 204.854 480.425 202.197 482.032 199.431C483.513 196.882 484.151 194.27 485.038 190.64C485.14 190.22 485.246 189.788 485.357 189.34C485.456 188.938 485.211 188.531 484.809 188.432ZM472.575 208.535C472.575 208.535 472.578 208.538 472.584 208.543C472.579 208.538 472.576 208.535 472.575 208.535Z" fill="black"/>
<path d="M465.252 187.18C464.399 190.043 465.172 192.801 466.98 193.34C468.787 193.878 470.944 191.993 471.797 189.129C472.65 186.265 471.876 183.507 470.069 182.969C468.261 182.431 466.105 184.316 465.252 187.18Z" fill="black"/>
<path d="M491.053 196.855C490.2 199.719 490.974 202.477 492.781 203.015C494.589 203.554 496.745 201.669 497.598 198.805C498.451 195.941 497.678 193.183 495.87 192.645C494.063 192.106 491.906 193.991 491.053 196.855Z" fill="black"/>
<path d="M75.6945 503.007C75.6945 499.458 78.5719 496.58 82.1214 496.58H655.396C658.945 496.58 661.823 499.458 661.823 503.007V523.573C661.823 527.122 658.945 530 655.396 530H82.1213C78.5719 530 75.6945 527.122 75.6945 523.573V503.007Z" fill="#D3E1E9"/>
<path d="M226.351 173.369C237.761 199.359 215.756 234.284 215.756 234.284L164.412 274.082L142.407 383.729C142.407 383.729 71.2942 362.995 71.2955 324.009C71.2973 272.841 110.195 260.455 110.195 260.455C110.195 260.455 103.073 224.295 116.222 200.188C140.428 155.81 175.823 165.247 175.823 165.247C175.823 165.247 209.203 134.305 226.351 173.369Z" fill="black"/>
<path d="M188.165 280.639L148.961 277.426C148.961 277.426 122.611 276.3 96.2612 296.063C66.6977 318.236 43.5611 395.036 43.5611 395.036L100.117 396.964L72.4819 503.007L240.589 492.756C240.589 492.756 232.746 317.814 223.056 296.063C217.666 283.964 188.165 280.639 188.165 280.639Z" fill="#A5D7F1"/>
<path fill-rule="evenodd" clip-rule="evenodd" d="M168.261 287.565C168.64 287.312 169.143 287.348 169.482 287.652L188.854 304.962C192.682 308.383 192.62 314.394 188.722 317.735C184.03 321.756 176.751 319.577 175.042 313.639L170.123 296.551L174.739 333.198C174.808 333.746 174.42 334.247 173.872 334.316C173.324 334.385 172.824 333.996 172.755 333.448L168.444 299.225L165.429 333.411C165.381 333.961 164.895 334.368 164.345 334.32C163.795 334.271 163.388 333.786 163.437 333.236L166.642 296.882L160.054 314.113C157.721 320.215 149.733 321.642 145.431 316.725L144.237 315.361C140.788 311.419 141.595 305.343 145.953 302.438L168.261 287.565ZM170.737 291.455L176.964 313.086C178.27 317.624 183.834 319.29 187.42 316.217C190.4 313.663 190.447 309.068 187.521 306.453L170.737 291.455ZM166.762 290.968L147.062 304.102C143.709 306.337 143.089 311.012 145.742 314.044L146.936 315.408C150.246 319.191 156.391 318.093 158.186 313.398L166.762 290.968Z" fill="#F2F2F2"/>
<path d="M229.944 483.177C229.944 479.065 233.278 475.732 237.39 475.732H450.338C454.45 475.732 457.783 479.065 457.783 483.177V489.134C457.783 493.246 454.45 496.58 450.338 496.58H237.39C233.278 496.58 229.944 493.246 229.944 489.134V483.177Z" fill="black"/>
<path d="M350.266 379.357C351.34 376.422 354.133 374.47 357.259 374.47H509.43C514.67 374.47 518.271 379.74 516.366 384.622L472.675 496.58H307.38L350.266 379.357Z" fill="black"/>
<path fill-rule="evenodd" clip-rule="evenodd" d="M416.504 444.045C421.853 446.461 428.147 444.084 430.564 438.736C432.98 433.387 430.603 427.093 425.254 424.676C419.906 422.26 413.611 424.637 411.195 429.986C408.779 435.334 411.156 441.629 416.504 444.045ZM415.681 445.868C422.036 448.739 429.515 445.914 432.386 439.559C435.257 433.204 432.433 425.725 426.078 422.854C419.723 419.983 412.243 422.807 409.372 429.162C406.501 435.517 409.326 442.997 415.681 445.868Z" fill="white"/>
<path d="M24.9232 467.016L43.561 395.036L100.76 396.964L84.6928 465.731L189.45 467.016L224.155 461.232L261.626 478.927C262.984 479.568 262.327 481.621 260.848 481.354L224.155 474.729L263.168 492.734C264.2 493.211 264.151 494.693 263.091 495.101L257.771 497.147C257.641 497.197 257.504 497.226 257.365 497.232L197.805 499.793L65.6661 516.971C37.7547 520.6 15.7569 493.628 24.9232 467.016Z" fill="white"/>
<path fill-rule="evenodd" clip-rule="evenodd" d="M226.489 480.884C225.983 480.662 225.393 480.891 225.171 481.397C224.948 481.902 225.178 482.493 225.683 482.715L257.818 496.854C258.323 497.076 258.913 496.847 259.136 496.341C259.358 495.836 259.129 495.246 258.623 495.023L226.489 480.884ZM227.122 487.308C226.616 487.089 226.027 487.322 225.807 487.828C225.588 488.335 225.82 488.924 226.327 489.143L245.608 497.498C246.114 497.718 246.703 497.485 246.923 496.978C247.142 496.472 246.91 495.883 246.403 495.663L227.122 487.308Z" fill="black"/>
<path fill-rule="evenodd" clip-rule="evenodd" d="M112.569 353.576C113.106 353.709 113.433 354.251 113.3 354.787L85.9713 465.374H150.248C150.8 465.374 151.248 465.822 151.248 466.374C151.248 466.927 150.8 467.374 150.248 467.374H84.6941C84.3866 467.374 84.0963 467.233 83.9067 466.991C83.7172 466.749 83.6495 466.433 83.7233 466.134L111.359 354.307C111.491 353.771 112.033 353.444 112.569 353.576Z" fill="black"/>
<path d="M188.78 263.612C188.78 263.612 203.774 266.537 212.712 255.03C221.65 243.523 214.793 226.566 214.793 226.566L203.604 191.85C203.604 191.85 179.813 196.447 175.957 208.015C165.674 229.866 162.517 224.689 162.517 224.689C162.517 224.689 142.55 214.348 140.469 232.509C138.999 245.338 153.782 249.706 153.782 249.706L149.607 276.782C149.607 276.782 151.449 290.122 169.53 290.921C188.149 291.744 189.865 280.931 189.865 280.931L188.78 263.612Z" fill="white"/>
<path d="M189.583 276.442L189.421 263.573L167.611 254.636L189.583 276.442Z" fill="black"/>
<path fill-rule="evenodd" clip-rule="evenodd" d="M147.562 231.58C147.809 231.248 148.279 231.179 148.611 231.426L157.392 237.959C157.724 238.207 157.793 238.677 157.546 239.009C157.299 239.341 156.829 239.41 156.496 239.163L147.716 232.629C147.384 232.382 147.315 231.912 147.562 231.58Z" fill="black"/>
<path fill-rule="evenodd" clip-rule="evenodd" d="M186.285 243.296C185.536 243.272 185.536 243.273 185.536 243.273L185.536 243.276L185.535 243.281L185.535 243.293C185.535 243.303 185.535 243.315 185.535 243.331C185.535 243.361 185.536 243.402 185.538 243.453C185.542 243.553 185.552 243.693 185.574 243.862C185.618 244.198 185.712 244.659 185.914 245.165C186.324 246.19 187.174 247.387 188.878 248.095C190.638 248.827 192.21 248.392 193.292 247.814C193.832 247.526 194.264 247.196 194.561 246.939C194.71 246.81 194.827 246.698 194.909 246.616C194.949 246.575 194.982 246.541 195.005 246.516C195.016 246.504 195.025 246.494 195.032 246.486L195.041 246.477L195.044 246.473L195.045 246.472C195.045 246.472 195.046 246.471 194.483 245.975L195.046 246.471C195.32 246.16 195.29 245.686 194.979 245.412C194.668 245.139 194.194 245.169 193.921 245.479L193.921 245.478C193.921 245.478 193.922 245.478 193.921 245.479L193.907 245.493C193.895 245.507 193.873 245.529 193.844 245.559C193.786 245.617 193.697 245.703 193.58 245.805C193.344 246.009 193.004 246.268 192.586 246.491C191.753 246.935 190.666 247.214 189.454 246.71C188.185 246.183 187.594 245.327 187.307 244.608C187.161 244.242 187.093 243.907 187.061 243.667C187.045 243.547 187.039 243.453 187.037 243.392C187.035 243.361 187.035 243.339 187.035 243.327L187.035 243.316C187.046 242.904 186.722 242.56 186.309 242.547C185.895 242.533 185.549 242.859 185.536 243.273L186.285 243.296Z" fill="black"/>
<path fill-rule="evenodd" clip-rule="evenodd" d="M192.488 218.783C192.89 218.684 193.296 218.929 193.396 219.331C193.483 219.682 193.565 220.019 193.644 220.342C194.364 223.283 194.826 225.167 195.903 227.022C197.093 229.071 199.066 231.124 203.123 234.401C203.339 234.575 203.638 234.94 203.503 235.442C203.402 235.822 203.095 236.037 202.94 236.135C202.579 236.363 202.025 236.554 201.489 236.723C201.194 236.815 200.886 236.907 200.574 237C199.65 237.275 198.695 237.56 197.963 237.908C197.588 238.085 197.141 237.926 196.963 237.551C196.786 237.177 196.945 236.73 197.32 236.552C198.168 236.15 199.294 235.815 200.241 235.533C200.527 235.448 200.797 235.368 201.038 235.292C201.258 235.222 201.448 235.159 201.607 235.101C197.894 232.06 195.878 229.965 194.606 227.775C193.414 225.723 192.9 223.618 192.194 220.729C192.112 220.394 192.028 220.048 191.94 219.691C191.84 219.289 192.086 218.882 192.488 218.783ZM202.18 234.837C202.181 234.837 202.177 234.841 202.167 234.848C202.175 234.84 202.18 234.837 202.18 234.837Z" fill="black"/>
<ellipse cx="205.504" cy="218.709" rx="2.72206" ry="4.31273" transform="rotate(-16.5865 205.504 218.709)" fill="black"/>
<ellipse cx="184.937" cy="226.422" rx="2.72206" ry="4.31273" transform="rotate(-16.5865 184.937 226.422)" fill="black"/>
<path d="M538.428 413.031H609.123L600.126 496.58H547.425L538.428 413.031Z" fill="#E65752"/>
<path d="M544.855 476.015L542.285 448.379H605.91L602.697 476.015H544.855Z" fill="#F2F2F2"/>
<path d="M533.289 402.748C533.289 399.199 536.166 396.322 539.716 396.322H607.84C611.39 396.322 614.267 399.199 614.267 402.748V406.605C614.267 410.154 611.389 413.031 607.84 413.031H539.716C536.166 413.031 533.289 410.154 533.289 406.605V402.748Z" fill="black"/>
<path fill-rule="evenodd" clip-rule="evenodd" d="M574.419 472.348C580.203 472.348 584.892 467.659 584.892 461.875C584.892 456.091 580.203 451.402 574.419 451.402C568.636 451.402 563.947 456.091 563.947 461.875C563.947 467.659 568.636 472.348 574.419 472.348ZM574.419 473.443C580.808 473.443 585.988 468.264 585.988 461.875C585.988 455.486 580.808 450.307 574.419 450.307C568.03 450.307 562.851 455.486 562.851 461.875C562.851 468.264 568.03 473.443 574.419 473.443Z" fill="#E99BBA"/>
<path d="M238.398 454.405L226.726 393.109L250.505 341.694L272.356 378.327L309.623 296.068L311.266 292.233L313.206 264.11C313.281 263.025 314.721 262.7 315.254 263.649L323.32 277.988L357.064 249.472C358.147 248.556 359.697 249.812 359.026 251.062L346.331 274.7L373.68 255.165C374.73 254.415 375.987 255.781 375.153 256.765L353.453 282.371L380.326 268.934C381.437 268.379 382.469 269.808 381.593 270.687L358.501 293.876L373.974 287.427C375.139 286.941 376.066 288.485 375.091 289.285L359.48 302.094L343.694 314.059L302.733 436.06C293.669 463.059 260.339 472.563 238.398 454.405Z" fill="white"/>
<path d="M223.514 295.421L197.806 333.982L219.015 398.25L273.001 376.399L223.514 295.421Z" fill="#A5D7F1"/>
<path fill-rule="evenodd" clip-rule="evenodd" d="M209.094 325.317C209.629 325.179 210.174 325.501 210.312 326.035L225.094 383.234C225.232 383.769 224.911 384.314 224.376 384.453C223.842 384.591 223.296 384.269 223.158 383.735L208.376 326.536C208.238 326.001 208.559 325.455 209.094 325.317Z" fill="black"/>
<path d="M485.061 187.242C485.63 179.741 478.532 180.28 477.214 184.367" stroke="black" stroke-width="1.4"/>
<path fill-rule="evenodd" clip-rule="evenodd" d="M99.9556 208.461C101.622 203.607 102.526 198.406 102.526 192.997C102.526 166.407 80.6944 144.852 53.7642 144.852C26.834 144.852 5.00281 166.407 5.00281 192.997C5.00281 219.586 26.834 241.141 53.7642 241.141C70.3002 241.141 84.9137 233.014 93.731 220.585H101.315C103.853 220.585 105.434 217.83 104.152 215.638L99.9556 208.461Z" fill="#F2F2F2"/>
<path d="M46.0912 201.203C45.7603 198.916 47.5341 196.867 49.8451 196.867H60.0476C62.3586 196.867 64.1324 198.916 63.8015 201.203L62.3704 211.094C62.1005 212.959 60.5015 214.344 58.6165 214.344H51.2762C49.3912 214.344 47.7922 212.959 47.5223 211.094L46.0912 201.203Z" fill="white"/>
<path d="M70.7477 188.128C70.7477 197.091 63.3889 204.357 54.3113 204.357C45.2337 204.357 37.8748 197.091 37.8748 188.128C37.8748 179.166 45.2337 171.9 54.3113 171.9C63.3889 171.9 70.7477 179.166 70.7477 188.128Z" fill="#F2C94C"/>
<path fill-rule="evenodd" clip-rule="evenodd" d="M48.7558 185.132H61.1348V203.108H60.1348V186.132H49.7558V203.733H48.7558V185.132Z" fill="#F2F2F2"/>
<path d="M604.163 181.716C604.163 178.721 606.591 176.293 609.586 176.293H658.399C661.395 176.293 663.823 178.721 663.823 181.716V210.139C663.823 213.135 661.395 215.563 658.399 215.563H609.586C606.591 215.563 604.163 213.135 604.163 210.139V181.716Z" fill="#E65752"/>
<path d="M633.818 198.728L606.955 179.573C605.523 178.551 606.246 176.293 608.005 176.293H660.237C661.971 176.293 662.711 178.498 661.326 179.543L635.957 198.698C635.326 199.174 634.46 199.186 633.818 198.728Z" fill="#F2F2F2"/>
<path fill-rule="evenodd" clip-rule="evenodd" d="M633.415 245.55C661.011 245.55 683.361 223.465 683.361 196.249C683.361 169.033 661.011 146.948 633.415 146.948C605.818 146.948 583.469 169.033 583.469 196.249C583.469 223.465 605.818 245.55 633.415 245.55ZM633.415 246.55C661.551 246.55 684.361 224.03 684.361 196.249C684.361 168.469 661.551 145.948 633.415 145.948C605.278 145.948 582.469 168.469 582.469 196.249C582.469 224.03 605.278 246.55 633.415 246.55Z" fill="#F2F2F2"/>
<path d="M519.252 194.307C517.426 206.928 508.081 215.677 498.687 214.317C489.293 212.958 482.813 201.918 484.639 189.297C486.466 176.676 495.81 167.927 505.204 169.286C514.598 170.646 521.079 181.686 519.252 194.307Z" stroke="black" stroke-width="1.5"/>
<path d="M477.721 181.374C475.895 193.995 466.55 202.745 457.156 201.385C447.762 200.026 441.282 188.986 443.108 176.365C444.935 163.744 454.279 154.995 463.673 156.354C473.067 157.714 479.548 168.753 477.721 181.374Z" stroke="black" stroke-width="1.5"/>
<path d="M534.5 209.5C538.9 208.7 541.333 209.833 542 210.5" stroke="black" stroke-width="1.4" stroke-linecap="round"/>
<path d="M155 237.134C151.612 236.671 148.255 237.519 147 238" stroke="black" stroke-width="1.4" stroke-linecap="round"/>
<path d="M507 293L472 493" stroke="black" stroke-width="1.8" stroke-linecap="round"/>
</svg>
